<?xml version="1.0" standalone="no"?><!DOCTYPE svg PUBLIC "-//W3C//DTD SVG 1.1//EN" "http://www.w3.org/Graphics/SVG/1.1/DTD/svg11.dtd"><svg class="icon" width="200px" height="200.00px" viewBox="0 0 1024 1024" version="1.1" xmlns="http://www.w3.org/2000/svg"><path fill="#666666" d="M805.6 924.8h-168c-6.4 0-11.2-3.2-14.4-8.8-2.4-5.6-2.4-12 1.6-16.8l84-112.8c6.4-8 20-8 25.6 0l84 112.8c4 4.8 4 11.2 1.6 16.8-3.2 5.6-8.8 8.8-14.4 8.8z m-136-32h104l-52-70.4-52 70.4zM364.8 818.4C161.6 818.4 4 566.4 4 349.6c0-107.2 36.8-196 106.4-257.6 64-56.8 154.4-88 254.4-88s190.4 31.2 254.4 88c69.6 61.6 106.4 150.4 106.4 257.6 0 216.8-157.6 468.8-360.8 468.8z m0-782.4c-200 0-328.8 123.2-328.8 313.6 0 202.4 144 436.8 328.8 436.8s328.8-235.2 328.8-436.8c0-190.4-128.8-313.6-328.8-313.6z"  /><path fill="#666666" d="M721.6 812c-63.2 0-124-28.8-176.8-83.2-3.2-3.2-4.8-7.2-4.8-11.2 0-4 1.6-8 4.8-11.2C635.2 620 693.6 480 693.6 349.6c0-69.6-16.8-129.6-48.8-179.2-3.2-4.8-3.2-10.4-1.6-15.2 2.4-4.8 6.4-8.8 12-9.6 21.6-4 43.2-5.6 65.6-5.6 178.4 0 298.4 115.2 298.4 285.6 0.8 178.4-129.6 386.4-297.6 386.4zM578.4 717.6c44 40.8 92.8 62.4 143.2 62.4 150.4 0 266.4-190.4 266.4-355.2 0-154.4-104.8-253.6-266.4-253.6-12.8 0-24.8 0.8-36.8 1.6 27.2 50.4 41.6 109.6 41.6 176-0.8 133.6-57.6 276.8-148 368.8z"  /><path fill="#666666" d="M940 433.6c-4.8 0-8-3.2-8-8 0-158.4-124-189.6-176.8-196-4-0.8-7.2-4.8-7.2-8.8 0.8-4 4.8-7.2 8.8-7.2 119.2 13.6 191.2 92.8 191.2 212 0 4-3.2 8-8 8zM617.6 368.8c-4.8 0-8-3.2-8-8 0-141.6-96-233.6-244.8-233.6-4.8 0-8-3.2-8-8s3.2-8 8-8c158.4 0 260.8 97.6 260.8 249.6 0 4.8-3.2 8-8 8zM467.2 936.8H262.4c-6.4 0-12-4-14.4-9.6-2.4-5.6-1.6-12 2.4-16.8L352.8 792c6.4-7.2 18.4-7.2 24 0l102.4 118.4c4 4.8 4.8 11.2 2.4 16.8-2.4 5.6-8 9.6-14.4 9.6z m-169.6-32H432l-67.2-78.4-67.2 78.4z"  /><path fill="#666666" d="M584.8 1020c-0.8 0-2.4 0-3.2-0.8-8.8-1.6-14.4-10.4-12-19.2 5.6-25.6-12.8-52.8-32-76.8-17.6-22.4-37.6-44.8-61.6-62.4-17.6-12.8-46.4-28.8-80-31.2-8.8-0.8-15.2-8-15.2-16.8s8-15.2 16.8-15.2c41.6 2.4 76 21.6 97.6 37.6 27.2 20 48.8 44.8 68 68 24 29.6 47.2 65.6 38.4 104-2.4 8-9.6 12.8-16.8 12.8zM949.6 1020c-0.8 0-2.4 0-3.2-0.8-8.8-1.6-14.4-10.4-12-19.2 5.6-25.6-12.8-52.8-32-76.8-17.6-22.4-37.6-44.8-61.6-62.4-17.6-12.8-46.4-28.8-80-31.2-8.8-0.8-15.2-8-15.2-16.8s8-15.2 16.8-15.2c41.6 2.4 76 21.6 97.6 37.6 27.2 20 48.8 44.8 68 68 24 29.6 47.2 65.6 38.4 104-3.2 8-9.6 12.8-16.8 12.8z"  /></svg>