<?xml version="1.0" standalone="no"?><!DOCTYPE svg PUBLIC "-//W3C//DTD SVG 1.1//EN" "http://www.w3.org/Graphics/SVG/1.1/DTD/svg11.dtd"><svg class="icon" width="200px" height="200.00px" viewBox="0 0 1024 1024" version="1.1" xmlns="http://www.w3.org/2000/svg"><path fill="#666666" d="M810.4 1020H52c-8.8 0-16-7.2-16-16V20c0-8.8 7.2-16 16-16h564.8c4.8 0 8.8 1.6 12 4.8l192.8 208c2.4 3.2 4 7.2 4 11.2v191.2c0 4-1.6 8-4.8 11.2l-294.4 296-27.2 103.2 103.2-27.2 196.8-196.8c4.8-4.8 11.2-5.6 17.6-3.2 5.6 2.4 9.6 8 9.6 14.4v388c0 8-7.2 15.2-16 15.2z m-742.4-32h725.6V654.4l-172.8 172.8c-1.6 1.6-4.8 3.2-7.2 4L480 867.2c-5.6 1.6-11.2 0-15.2-4s-5.6-9.6-4-15.2l36-133.6c0.8-2.4 2.4-4.8 4-7.2l293.6-293.6V234.4l-184-198.4H68v952z"  /><path fill="#666666" d="M810.4 236H617.6c-4.8 0-8-3.2-8-8v-208c0-3.2 2.4-6.4 4.8-7.2 3.2-1.6 6.4-0.8 8.8 2.4l192.8 208c2.4 2.4 2.4 5.6 1.6 8.8-1.6 2.4-4 4-7.2 4z m-184.8-16H792L625.6 40.8v179.2zM248 891.2c-0.8 0-1.6 0-2.4-0.8-3.2-0.8-4.8-3.2-5.6-6.4L228.8 800c-12.8 27.2-28 53.6-45.6 77.6-2.4 3.2-7.2 4.8-11.2 1.6-3.2-2.4-4.8-7.2-1.6-11.2 22.4-31.2 40.8-64.8 55.2-100.8 1.6-3.2 4.8-5.6 8-4.8 3.2 0.8 6.4 3.2 7.2 7.2l13.6 96c15.2-17.6 28-37.6 37.6-59.2 1.6-3.2 5.6-5.6 8.8-4.8 4 0.8 6.4 4 6.4 8l-0.8 34.4c13.6-13.6 24-29.6 31.2-47.2 1.6-3.2 4-4.8 8-4.8 3.2 0 6.4 2.4 7.2 5.6l7.2 20.8c2.4-1.6 5.6-1.6 8 0l21.6 12.8c1.6-1.6 4-2.4 6.4-3.2 4-0.8 8 0.8 9.6 4l4.8 9.6c1.6 4 0 8.8-4 10.4-4 1.6-8.8 0-10.4-4l-0.8-0.8c-2.4 1.6-5.6 1.6-8 0l-21.6-12.8c0 0.8 0 0.8-0.8 1.6-0.8 3.2-4 5.6-7.2 5.6s-6.4-2.4-8-5.6l-5.6-15.2c-10.4 18.4-24 34.4-40.8 47.2-2.4 1.6-5.6 2.4-8.8 0.8-2.4-1.6-4.8-4-4.8-7.2v-18.4c-10.4 16.8-22.4 32-36 45.6-0.8 1.6-3.2 2.4-5.6 2.4zM460.8 205.6H190.4c-4.8 0-8-3.2-8-8s3.2-8 8-8h269.6c4.8 0 8 3.2 8 8s-3.2 8-7.2 8zM670.4 404.8H192c-4.8 0-8-3.2-8-8s3.2-8 8-8h478.4c4.8 0 8 3.2 8 8s-3.2 8-8 8zM670.4 561.6H192c-4.8 0-8-3.2-8-8s3.2-8 8-8h478.4c4.8 0 8 3.2 8 8s-3.2 8-8 8z"  /><path fill="#666666" d="M476 867.2c-4 0-8-1.6-11.2-4.8-4-4-5.6-9.6-4-15.2l36-133.6c0.8-2.4 2.4-4.8 4-7.2l361.6-361.6c6.4-6.4 16-6.4 22.4 0l97.6 97.6c3.2 3.2 4.8 7.2 4.8 11.2s-1.6 8-4.8 11.2l-361.6 361.6c-1.6 1.6-4.8 3.2-7.2 4L480 866.4c-0.8 0.8-2.4 0.8-4 0.8z m50.4-140.8l-27.2 103.2 103.2-27.2 347.2-347.2-75.2-75.2-348 346.4z"  /></svg>