<?xml version="1.0" standalone="no"?><!DOCTYPE svg PUBLIC "-//W3C//DTD SVG 1.1//EN" "http://www.w3.org/Graphics/SVG/1.1/DTD/svg11.dtd"><svg class="icon" width="200px" height="200.00px" viewBox="0 0 1024 1024" version="1.1" xmlns="http://www.w3.org/2000/svg"><path fill="#666666" d="M698.4 703.2H333.6c-5.6 0-10.4-2.4-12.8-7.2 0-0.8-40.8-59.2-84.8-135.2-4.8-8-1.6-17.6 5.6-21.6 8-4.8 17.6-1.6 21.6 5.6 35.2 60 67.2 108.8 78.4 126.4h347.2c12-17.6 44-66.4 78.4-126.4 4.8-8 14.4-10.4 21.6-5.6 8 4.8 10.4 14.4 5.6 21.6C752 636.8 712 695.2 711.2 696c-3.2 4-8 7.2-12.8 7.2z"  /><path fill="#666666" d="M249.6 560.8c-3.2 0-6.4-2.4-8-5.6-1.6-4 0.8-8.8 5.6-10.4 32-10.4 68-18.4 107.2-24V84c0-4.8 3.2-8 8-8s8 3.2 8 8v443.2c0 4-3.2 7.2-7.2 8-40.8 6.4-78.4 14.4-111.2 24.8-0.8 0-1.6 0.8-2.4 0.8z"  /><path fill="#666666" d="M249.6 568.8c-5.6 0-11.2-3.2-13.6-8-112-194.4-148.8-323.2-108-382.4 36-52 118.4-91.2 232-109.6 8.8-1.6 16.8 4.8 18.4 12.8 1.6 8.8-4 16.8-12.8 18.4-105.6 17.6-180 52-211.2 96.8-32 46.4 8 172.8 108.8 348 4.8 8 1.6 17.6-5.6 21.6-2.4 1.6-4.8 2.4-8 2.4zM782.4 568.8c-2.4 0-5.6-0.8-8-2.4-8-4.8-10.4-14.4-5.6-21.6 100.8-175.2 140.8-301.6 108.8-348-30.4-44.8-105.6-79.2-210.4-96.8-8.8-1.6-14.4-9.6-12.8-18.4 1.6-8.8 9.6-14.4 18.4-12.8 113.6 19.2 196 58.4 231.2 110.4 40.8 59.2 4.8 188-107.2 381.6-4 4.8-9.6 8-14.4 8z"  /><path fill="#666666" d="M782.4 560.8h-2.4c-32.8-10.4-70.4-18.4-111.2-24.8-4-0.8-7.2-4-7.2-8V84c0-4.8 3.2-8 8-8s8 3.2 8 8V520c39.2 6.4 75.2 14.4 107.2 24 4 1.6 6.4 5.6 5.6 10.4-1.6 4-4.8 6.4-8 6.4z"  /><path fill="#666666" d="M362.4 100c-8 0-14.4-5.6-16-13.6-1.6-8.8 4-16.8 12.8-18.4 99.2-16.8 212.8-16.8 312 0 8.8 1.6 14.4 9.6 12.8 18.4-1.6 8.8-9.6 14.4-18.4 12.8-96-16-205.6-16-301.6 0 0 0.8-0.8 0.8-1.6 0.8z"  /><path fill="#666666" d="M669.6 535.2h-0.8c-98.4-14.4-206.4-14.4-304.8 0-2.4 0-4.8 0-6.4-1.6-1.6-1.6-2.4-4-2.4-6.4V84c0-4.8 3.2-8 8-8s8 3.2 8 8v433.6c94.4-12.8 196.8-12.8 291.2 0V84c0-4.8 3.2-8 8-8s8 3.2 8 8v443.2c0 2.4-0.8 4.8-2.4 6.4-3.2 0.8-4.8 1.6-6.4 1.6zM189.6 968C87.2 968 4 884.8 4 782.4s83.2-185.6 185.6-185.6S375.2 680 375.2 782.4 291.2 968 189.6 968z m0-338.4c-84.8 0-153.6 68.8-153.6 153.6S104.8 936 189.6 936s153.6-68.8 153.6-153.6-69.6-152.8-153.6-152.8zM868 968c-73.6 0-132.8-59.2-132.8-132.8s59.2-132.8 132.8-132.8 132.8 59.2 132.8 132.8-60 132.8-132.8 132.8z m0-233.6c-55.2 0-100.8 45.6-100.8 100.8s45.6 100.8 100.8 100.8 100.8-45.6 100.8-100.8-45.6-100.8-100.8-100.8z"  /><path fill="#666666" d="M189.6 960c-4.8 0-8-3.2-8-8v-100.8c0-4.8 3.2-8 8-8s8 3.2 8 8V952c0 4.8-4 8-8 8zM189.6 722.4c-4.8 0-8-3.2-8-8V613.6c0-4.8 3.2-8 8-8s8 3.2 8 8v100.8c0 4.8-4 8-8 8zM120.8 791.2H20c-4.8 0-8-3.2-8-8s3.2-8 8-8h100.8c4.8 0 8 3.2 8 8s-3.2 8-8 8zM358.4 791.2H257.6c-4.8 0-8-3.2-8-8s3.2-8 8-8h100.8c4.8 0 8 3.2 8 8s-3.2 8-8 8zM69.6 910.4c-2.4 0-4-0.8-5.6-2.4-3.2-3.2-3.2-8 0-11.2l71.2-71.2c3.2-3.2 8-3.2 11.2 0s3.2 8 0 11.2l-71.2 71.2c-1.6 1.6-3.2 2.4-5.6 2.4zM237.6 742.4c-2.4 0-4-0.8-5.6-2.4-3.2-3.2-3.2-8 0-11.2l71.2-71.2c3.2-3.2 8-3.2 11.2 0s3.2 8 0 11.2l-71.2 71.2c-1.6 1.6-4 2.4-5.6 2.4zM140.8 742.4c-2.4 0-4-0.8-5.6-2.4L64 668.8c-3.2-3.2-3.2-8 0-11.2s8-3.2 11.2 0l71.2 71.2c3.2 3.2 3.2 8 0 11.2-1.6 1.6-3.2 2.4-5.6 2.4zM308.8 910.4c-2.4 0-4-0.8-5.6-2.4l-71.2-71.2c-3.2-3.2-3.2-8 0-11.2s8-3.2 11.2 0l71.2 71.2c3.2 3.2 3.2 8 0 11.2-1.6 1.6-3.2 2.4-5.6 2.4zM868 792c-4.8 0-8-3.2-8-8v-65.6c0-4.8 3.2-8 8-8s8 3.2 8 8V784c0 4-4 8-8 8z"  /><path fill="#666666" d="M868 734.4c-8.8 0-16-7.2-16-16v-71.2c0-9.6-8.8-17.6-20-17.6H745.6c-8.8 0-16-7.2-16-16s7.2-16 16-16H832c28.8 0 52 22.4 52 49.6v71.2c0 8.8-7.2 16-16 16zM868 958.4c-4.8 0-8-3.2-8-8v-64.8c0-4.8 3.2-8 8-8s8 3.2 8 8v64.8c0 4-4 8-8 8zM982.4 843.2h-64.8c-4.8 0-8-3.2-8-8s3.2-8 8-8h64.8c4.8 0 8 3.2 8 8s-3.2 8-8 8zM817.6 843.2h-64.8c-4.8 0-8-3.2-8-8s3.2-8 8-8h64.8c4.8 0 8 3.2 8 8s-3.2 8-8 8z"  /><path fill="#666666" d="M786.4 703.2h-88c-8.8 0-16-7.2-16-16s7.2-16 16-16h84l213.6-133.6c7.2-4.8 17.6-2.4 22.4 4.8 4.8 7.2 2.4 17.6-4.8 22.4l-218.4 136c-2.4 1.6-5.6 2.4-8.8 2.4zM189.6 859.2c-42.4 0-76-34.4-76-76s34.4-76 76-76 76 34.4 76 76-34.4 76-76 76z m0-136.8c-33.6 0-60 27.2-60 60s27.2 60 60 60c33.6 0 60-27.2 60-60s-27.2-60-60-60zM868 893.6c-32 0-58.4-26.4-58.4-58.4s26.4-58.4 58.4-58.4 58.4 26.4 58.4 58.4-26.4 58.4-58.4 58.4z m0-100.8c-23.2 0-42.4 19.2-42.4 42.4s19.2 42.4 42.4 42.4 42.4-19.2 42.4-42.4-19.2-42.4-42.4-42.4z"  /></svg>