<?xml version="1.0" standalone="no"?><!DOCTYPE svg PUBLIC "-//W3C//DTD SVG 1.1//EN" "http://www.w3.org/Graphics/SVG/1.1/DTD/svg11.dtd"><svg class="icon" width="200px" height="200.00px" viewBox="0 0 1024 1024" version="1.1" xmlns="http://www.w3.org/2000/svg"><path fill="#666666" d="M480 400c-41.6 0-81.6-17.6-109.6-48s-42.4-71.2-39.2-112.8l16.8-220.8c0.8-8.8 8-15.2 16.8-14.4 8.8 0.8 15.2 8 14.4 16.8l-16.8 220.8c-2.4 32.8 8.8 64 31.2 88.8a118.056 118.056 0 0 0 172.8 0c22.4-24 33.6-55.2 31.2-88.8L580.8 20.8c-0.8-8.8 5.6-16.8 14.4-16.8 8.8-0.8 16.8 5.6 16.8 14.4L629.6 240c3.2 41.6-11.2 82.4-39.2 112.8C561.6 382.4 521.6 400 480 400z"  /><path fill="#666666" d="M480 1020c-20.8 0-40.8-8.8-56.8-26.4-24.8-26.4-37.6-67.2-34.4-110.4L423.2 376c0-4.8 3.2-9.6 7.2-12 4-2.4 9.6-3.2 13.6-1.6 8.8 3.2 17.6 4.8 26.4 5.6 3.2 0 5.6 0.8 8.8 0.8h3.2c10.4 0 22.4-1.6 33.6-4.8 4.8-1.6 9.6-0.8 13.6 2.4 4 2.4 6.4 7.2 7.2 12l34.4 505.6c3.2 43.2-9.6 84-34.4 110.4-16 16.8-35.2 25.6-56.8 25.6z m-25.6-622.4l-32.8 488c-2.4 33.6 8 67.2 25.6 86.4 7.2 7.2 18.4 16 33.6 16s26.4-8.8 33.6-16c18.4-19.2 28-52.8 25.6-86.4l-32.8-487.2c-8 1.6-16 1.6-24 1.6h-0.8c-4.8 0-8.8 0-13.6-0.8-5.6 0-10.4-0.8-14.4-1.6z"  /><path fill="#666666" d="M480 400c-8.8 0-16-7.2-16-16V24c0-8.8 7.2-16 16-16s16 7.2 16 16v360c0 8.8-7.2 16-16 16zM881.6 393.6c-76.8 0-138.4-85.6-138.4-191.2s62.4-191.2 138.4-191.2 138.4 85.6 138.4 191.2-62.4 191.2-138.4 191.2z m0-351.2c-59.2 0-106.4 71.2-106.4 159.2s48 159.2 106.4 159.2c59.2 0 106.4-71.2 106.4-159.2s-48-159.2-106.4-159.2z"  /><path fill="#666666" d="M881.6 1013.6c-20.8 0-40.8-8.8-56.8-26.4-24.8-26.4-37.6-67.2-34.4-110.4l34.4-510.4c0-5.6 3.2-10.4 8-12.8 4.8-2.4 10.4-3.2 15.2-0.8 21.6 11.2 44.8 11.2 66.4 0 4.8-2.4 10.4-2.4 15.2 0.8 4.8 2.4 8 7.2 8 12.8l34.4 510.4c3.2 43.2-9.6 84-34.4 110.4-16 16.8-35.2 26.4-56 26.4z m-26.4-623.2l-32.8 488.8c-2.4 33.6 8 67.2 25.6 86.4 7.2 7.2 18.4 16 33.6 16 15.2 0 26.4-8.8 33.6-16 18.4-19.2 28-52.8 25.6-86.4l-32.8-488.8c-17.6 4-35.2 4-52.8 0zM129.6 1020H20c-8.8 0-16-7.2-16-16V20c0-4.8 1.6-8.8 5.6-12 3.2-3.2 8-4.8 12.8-4C229.6 27.2 213.6 471.2 208 616.8c-0.8 12.8-0.8 22.4-0.8 28 0 8.8-7.2 16-16 16h-44.8v343.2c-0.8 8.8-8 16-16.8 16z m-93.6-32h77.6V644.8c0-8.8 7.2-16 16-16h44.8c0-4 0-8 0.8-12.8C191.2 186.4 112 62.4 36 39.2v948.8z"  /></svg>