<?xml version="1.0" standalone="no"?><!DOCTYPE svg PUBLIC "-//W3C//DTD SVG 1.1//EN" "http://www.w3.org/Graphics/SVG/1.1/DTD/svg11.dtd"><svg class="icon" width="200px" height="200.00px" viewBox="0 0 1024 1024" version="1.1" xmlns="http://www.w3.org/2000/svg"><path fill="#666666" d="M1004 407.2H20c-8.8 0-16-7.2-16-16V237.6c0-8.8 7.2-16 16-16h984c8.8 0 16 7.2 16 16v153.6c0 8.8-7.2 16-16 16z m-968-32h952V253.6H36v121.6z"  /><path fill="#666666" d="M938.4 1020H85.6c-8.8 0-16-7.2-16-16V391.2c0-8.8 7.2-16 16-16h853.6c8.8 0 16 7.2 16 16v612.8c-0.8 8.8-8 16-16.8 16z m-836.8-32h821.6V407.2H101.6v580.8z"  /><path fill="#666666" d="M585.6 1012H438.4c-4.8 0-8-3.2-8-8V237.6c0-4.8 3.2-8 8-8h147.2c4.8 0 8 3.2 8 8v766.4c0 4.8-4 8-8 8z m-139.2-16h131.2V245.6H446.4v750.4zM601.6 189.6c-43.2 0-76.8-4-93.6-20-7.2-6.4-10.4-15.2-10.4-24C497.6 90.4 648.8 4 694.4 4c50.4 0 91.2 40.8 91.2 91.2s-40.8 91.2-91.2 91.2c-7.2 0-17.6 0.8-30.4 0.8-21.6 1.6-43.2 2.4-62.4 2.4zM694.4 36c-40 0-164.8 83.2-164.8 109.6 3.2 8 28.8 16 132.8 10.4 12.8-0.8 24-1.6 32-1.6 32.8 0 59.2-26.4 59.2-59.2s-26.4-59.2-59.2-59.2z"  /><path fill="#666666" d="M422.4 189.6c-19.2 0-40-0.8-62.4-1.6-12.8-0.8-23.2-0.8-30.4-0.8-50.4 0-91.2-40.8-91.2-91.2S279.2 4 329.6 4c45.6 0 196.8 85.6 196.8 141.6 0 9.6-4 17.6-10.4 24-16.8 16-51.2 20-93.6 20zM329.6 36c-32.8 0-59.2 26.4-59.2 59.2s26.4 59.2 59.2 59.2c8 0 19.2 0.8 32 1.6 104.8 5.6 129.6-2.4 132.8-10.4 0-26.4-124.8-109.6-164.8-109.6z"  /></svg>