<?xml version="1.0" standalone="no"?><!DOCTYPE svg PUBLIC "-//W3C//DTD SVG 1.1//EN" "http://www.w3.org/Graphics/SVG/1.1/DTD/svg11.dtd"><svg class="icon" width="200px" height="200.00px" viewBox="0 0 1024 1024" version="1.1" xmlns="http://www.w3.org/2000/svg"><path fill="#666666" d="M609.65091556 739.81269334c-5.75260445 5.93464889-11.4688 11.86929778-16.27477334 18.38648888-27.41589333 36.99143111-36.0448 79.91751111-23.73859555 117.92839112 17.80394667 54.94101333 75.83971555 90.40327111 147.82008889 90.40327111 24.17550222 0 48.64227555-3.93216 72.70855111-11.72366223 10.95907555-3.56807111 21.37201778-7.75509333 31.20241778-12.52465777L609.65091556 739.81269334z"  /><path fill="#666666" d="M381.44 219.20199112l0-10.1944889 473.31555556-78.86165333 0 541.80067556 72.81777778 69.65020444L927.57333334 90.16888889c0-1.20149333-0.58254222-2.25735111-0.69176889-3.42243555-0.03640889-1.89326222 0.50972445-3.67729778 0.18204444-5.57056-3.2768-19.84284445-22.10019555-33.45976889-41.87022222-29.92810667l-546.13333333 91.02222222C329.37528889 143.872 321.36533334 149.26051556 315.904 156.54229334L381.44 219.20199112z"  /><path fill="#666666" d="M308.62222222 451.8912l0 236.29368889c-22.90119111-10.66780445-49.66172445-16.82090667-78.97088-16.82090667-24.21191111 0-48.71509333 3.93216-72.78136888 11.76007112-45.03779555 14.56355555-83.70403555 41.21486222-108.75335112 75.07512888-27.41589333 36.99143111-36.0448 79.91751111-23.73859555 117.92839112 17.80394667 54.94101333 75.83971555 90.40327111 147.82008889 90.40327111 24.17550222 0 48.64227555-3.93216 72.70855111-11.72366223 66.73749333-21.66328889 114.14186667-67.35644445 130.88995555-118.11043555C379.07342222 831.23541334 381.44 825.19153778 381.44 818.34666667l0-5.93464889c1.20149333-9.68476445 1.20149333-19.36952889 0-29.12711111l0-261.74350222L308.62222222 451.8912z"  /><path fill="#666666" d="M963.98222222 963.98222222c-9.06581333 0-18.09521778-3.34961778-25.15854222-10.08526222l-837.40444444-800.99555555C86.89208889 138.99320889 86.38236445 115.94638222 100.25415112 101.41923556c13.87178667-14.49073778 36.95502222-15.03687111 51.48216888-1.12867556l837.40444445 800.99555556c14.49073778 13.90819555 15.03687111 36.95502222 1.12867555 51.48216889C983.13329778 960.19569778 973.59416889 963.98222222 963.98222222 963.98222222z"  /></svg>