<?xml version="1.0" standalone="no"?><!DOCTYPE svg PUBLIC "-//W3C//DTD SVG 1.1//EN" "http://www.w3.org/Graphics/SVG/1.1/DTD/svg11.dtd"><svg class="icon" width="200px" height="200.00px" viewBox="0 0 1024 1024" version="1.1" xmlns="http://www.w3.org/2000/svg"><path fill="#666666" d="M944.01512296 786.18382222C944.12434963 785.20078222 944.63407408 784.29056 944.63407408 783.27111111L944.63407408 91.50222222c0-1.20149333-0.58254222-2.25735111-0.6917689-3.42243555-0.03640889-1.89326222 0.50972445-3.67729778 0.18204444-5.60696889-3.2768-19.80643555-21.99096889-33.20490667-41.87022222-29.92810667l-546.13333332 91.02222222c-19.80643555 3.31320889-33.24131555 22.06378667-29.92810668 41.90663113 0.29127111 1.67480889 1.16508445 3.02193778 1.63840001 4.58751999C326.77522963 193.51992889 325.68296296 196.94236445 325.68296296 200.7288889l0 488.78933332c-22.90119111-10.66780445-49.66172445-16.82090667-78.97087999-16.82090667-24.24832 0-48.71509333 3.93216-72.78136889 11.76007112-45.07420445 14.56355555-83.66762667 41.21486222-108.75335112 75.07512889-27.37948445 36.99143111-36.0448 79.91751111-23.73859555 117.92839111 17.80394667 54.94101333 75.83971555 90.40327111 147.82008889 90.40327111 24.17550222 0 48.60586667-3.93216 72.70855111-11.72366222 66.73749333-21.66328889 114.10545778-67.35644445 130.88995556-118.11043556C396.09775407 832.56874667 398.50074074 826.52487111 398.50074074 819.68l0-6.04387554c1.20149333-9.64835555 1.20149333-19.29671111 0-28.98147556L398.50074074 210.34083555l473.31555555-78.89806221 0 558.51235555c-23.11964445-10.95907555-50.17144889-17.29422222-79.84469332-17.29422222-24.21191111 0-48.71509333 3.93216-72.78136889 11.76007112-45.03779555 14.56355555-83.70403555 41.21486222-108.75335111 75.07512888-27.41589333 36.99143111-36.0448 79.91751111-23.73859557 117.92839111 17.80394667 54.94101333 75.83971555 90.40327111 147.8200889 90.40327111 24.17550222 0 48.64227555-3.93216 72.70855111-11.72366222C896.24666075 927.26826667 951.66098963 855.7248 944.01512296 786.18382222z"  /></svg>