<?xml version="1.0" standalone="no"?><!DOCTYPE svg PUBLIC "-//W3C//DTD SVG 1.1//EN" "http://www.w3.org/Graphics/SVG/1.1/DTD/svg11.dtd"><svg t="1675147857307" class="icon" viewBox="0 0 1024 1024" version="1.1" xmlns="http://www.w3.org/2000/svg" p-id="1303" xmlns:xlink="http://www.w3.org/1999/xlink" width="200" height="200"><path d="M554.04594567 14.27658272v82.85044938c206.46331986 0 372.82702222 166.36370237 372.82702223 372.82702223h82.85044938c0-251.1611373-204.55775952-455.67747161-455.67747159-455.67747161z m0 165.70089877v82.85044937c114.87214807 0 207.12612347 92.25397538 207.12612347 207.12612347h82.85044937c0-159.69424118-130.28233165-289.97657283-289.97657284-289.97657284z m-356.00838099 3.89397112l-28.45912937 28.45912936c-176.88570943 176.88570943-176.88570943 465.20527328 0 642.09098272s465.20527328 176.88570943 642.09098272 0l28.45912936-28.45912937-28.45912936-29.78473655-227.8387358-227.8387358C626.20868709 555.37286764 657.60900741 516.723133 657.60900741 469.95405433c0-57.12538485-46.43767689-103.56306173-103.56306174-103.56306174-46.76907867 0-85.46023854 31.40032032-98.38490864 73.77832518l-227.8387358-227.8387358z m6.50376028 122.9914921l512.59573031 512.59573033c-145.77536569 115.70065257-354.351372 111.68240577-489.31475404-23.28097627-134.96338205-134.96338205-138.98162883-343.53938836-23.3224015-489.35617928z" fill="#666666" p-id="1304"></path></svg>