<?xml version="1.0" standalone="no"?><!DOCTYPE svg PUBLIC "-//W3C//DTD SVG 1.1//EN" "http://www.w3.org/Graphics/SVG/1.1/DTD/svg11.dtd"><svg class="icon" width="200px" height="200.00px" viewBox="0 0 1024 1024" version="1.1" xmlns="http://www.w3.org/2000/svg"><path fill="#666666" d="M665.12592592 428.25955555H286.47348148c-5.33997037 0-9.70903703 4.36906667-9.70903704 9.70903704v72.81777778c0 5.33997037 4.36906667 9.70903703 9.70903704 9.70903704h378.65244444c5.33997037 0 9.70903703-4.36906667 9.70903705-9.70903704v-72.81777778c0-5.33997037-4.36906667-9.70903703-9.70903705-9.70903704z"  /><path fill="#666666" d="M1009.79674074 942.83851852L832.60681481 765.64859259c148.18417778-180.70945185 137.86832592-448.43614815-31.55437037-617.73748148-179.61718518-179.73854815-471.37374815-179.73854815-651.7191111 0-179.73854815 180.34536297-179.73854815 472.10192592 0 651.71911111 169.30133333 169.4226963 437.02802963 179.73854815 617.73748147 31.55437037l177.18992593 177.18992593c3.88361482 3.39816297 10.07312592 3.39816297 13.34992593 0l52.18607407-52.18607407c3.39816297-3.2768 3.39816297-9.46631111 0-13.34992593zM736.73007407 735.30785185c-144.1792 144.05783703-377.68154075 144.05783703-521.86074073 0-144.05783703-144.1792-144.05783703-377.68154075 0-521.86074074 144.1792-144.05783703 377.68154075-144.05783703 521.86074073 0 144.05783703 144.1792 144.05783703 377.68154075 0 521.86074074z"  /></svg>